<svg xmlns="http://www.w3.org/2000/svg" width="16" height="16">
  <path d="M 1 1 L 0 6 L 1 6 L 1 11 L 2 11 L 2 8 C 2.0000552 7.4477381 2.4477381 7.0000552 3 7 L 5 7 C 5.5522619 7.0000552 5.9999448 7.4477381 6 8 L 6 6 L 14 6 L 14 10 L 15 10 L 15 6 L 16 6 L 16.140625 6 L 14.890625 1 L 14.300781 1 L 1 1 z M 6 2 L 14.109375 2 L 14.859375 5 L 5.5 5 L 6 2 z M 3 8 L 3 12 L 1 12 L 4 15 L 7 12 L 5 12 L 5 8 L 3 8 z M 11 11 L 11 16 L 16 16 L 16 11 L 11 11 z M 12 12 L 13 12 L 13 13 L 14 13 L 14 12 L 15 12 L 15 14 L 14 14 L 14 15 L 13 15 L 13 14 L 12 14 L 12 12 z M 6.4140625 14 L 5.4140625 15 L 10 15 L 10 14 L 6.4140625 14 z " fill="#c0bfbc" />
</svg>
