<svg xmlns="http://www.w3.org/2000/svg" width="16" height="16">
  <path d="M 2 0 L 2 16 L 10 16 L 10 11 L 7.0058594 11 L 5 11 L 5 10 L 6 10 A 1.0001 1.0001 0 0 1 6.0507812 9.6835938 L 6.2792969 9 L 5 9 L 5 8 L 6.6113281 8 L 6.9453125 7 L 5 7 L 5 6 L 7.5859375 6 L 8.5859375 5 L 3 5 L 3 4 L 9.5859375 4 L 10.585938 3 L 3 3 L 3 1 L 13 1 L 13 2.5859375 L 14 3.5859375 L 14 0 L 2 0 z M 12 3 L 8 7 L 7 10 L 10 9 L 14 5 L 12 3 z M 3 6 L 4 6 L 4 7 L 3 7 L 3 6 z M 14 6.4140625 L 12.414062 8 L 13 8 L 13 9 L 11.414062 9 L 10.707031 9.7070312 A 1.0001 1.0001 0 0 1 10.316406 9.9492188 L 10.164062 10 L 14 10 L 14 6.4140625 z M 3 8 L 4 8 L 4 9 L 3 9 L 3 8 z M 3 10 L 4 10 L 4 11 L 3 11 L 3 10 z M 11 11 L 11 16 L 16 16 L 16 11 L 11 11 z M 3 12 L 9 12 L 9 15 L 3 15 L 3 12 z M 12 12 L 13 12 L 13 13 L 14 13 L 14 12 L 15 12 L 15 14 L 14 14 L 14 15 L 13 15 L 13 14 L 12 14 L 12 12 z " fill="#c0bfbc" />
</svg>
