<svg xmlns="http://www.w3.org/2000/svg" width="16" height="16">
  <path d="M 8 0 A 8 8 0 0 0 0 8 A 8 8 0 0 0 1.3632812 12.460938 L 3.2773438 10.546875 C 3.1633113 10.195947 2.9615274 9.870967 2.9609375 9.5019531 A 1.0383564 1.0383564 0 0 0 2.9609375 9.5 C 2.9609375 8.5736876 3.3430451 7.6530486 3.9980469 6.9980469 C 4.4642413 6.5318524 5.0673879 6.2128306 5.7089844 6.0625 A 3 3 0 0 1 8 5 A 3 3 0 0 1 11 8 A 3 3 0 0 1 10.232422 10 L 15.734375 10 A 8 8 0 0 0 16 8 A 8 8 0 0 0 8 0 z M 6.5 7 A 2.5 2.5 0 0 0 4 9.5 A 2.5 2.5 0 0 0 4.4160156 10.876953 L 1.6464844 13.646484 L 2.3535156 14.353516 L 5.1230469 11.583984 A 2.5 2.5 0 0 0 6.5 12 A 2.5 2.5 0 0 0 9 9.5 A 2.5 2.5 0 0 0 6.5 7 z M 6.5 8 A 1.5 1.5 0 0 1 8 9.5 A 1.5 1.5 0 0 1 6.5 11 A 1.5 1.5 0 0 1 5 9.5 A 1.5 1.5 0 0 1 6.5 8 z M 10 10.230469 A 3 3 0 0 1 9.9414062 10.277344 C 9.7925699 10.92414 9.4714999 11.532406 9.0019531 12.001953 C 8.3469514 12.656955 7.4263124 13.039063 6.5 13.039062 A 1.0383564 1.0383564 0 0 0 6.4980469 13.039062 C 6.1290329 13.038474 5.8040533 12.836689 5.453125 12.722656 L 3.5410156 14.634766 A 8 8 0 0 0 8 16 A 8 8 0 0 0 10 15.740234 L 10 10.230469 z M 11 11 L 11 16 L 16 16 L 16 11 L 11 11 z M 12 12 L 13 12 L 13 13 L 14 13 L 14 12 L 15 12 L 15 14 L 14 14 L 14 15 L 13 15 L 13 14 L 12 14 L 12 12 z " fill="#c0bfbc" />
  <path d="M 8 5 A 3 3 0 0 0 5.7167969 6.0605469 C 5.9741642 6.0008546 6.235668 5.9609375 6.5 5.9609375 C 7.4263124 5.9609375 8.3469514 6.3430451 9.0019531 6.9980469 C 9.6569549 7.6530486 10.039062 8.5736876 10.039062 9.5 C 10.039063 9.7670137 9.9983833 10.031171 9.9375 10.291016 A 3 3 0 0 0 11 8 A 3 3 0 0 0 8 5 z " opacity="0.5" fill="#c0bfbc" />
</svg>
