<?xml version="1.0" encoding="UTF-8"?>
<svg width="16" height="16" version="1.1" xmlns="http://www.w3.org/2000/svg">
 <path d="m6 0 0.0039062 8.1719-2.5898-2.5859c-0.375-0.37509-0.88366-0.58586-1.4141-0.58594h-2v2c8.02e-5 0.5304 0.21085 1.0391 0.58594 1.4141l7.418 7.4141 1.9961-1.998v-3.8301h3.8281l1.5859-1.5859c0.37366-0.37565 0.58299-0.88422 0.58203-1.4141h0.003906v-2h-2c-0.5305 8e-5 -1.0391 0.21085-1.4141 0.58594l-2.582 2.5859-0.003906-8.1719h-4zm5 11v5h5v-5h-5zm1 1h1v1h1v-1h1v2h-1v1h-1v-1h-1v-2z" fill="#c0bfbc"/>
</svg>
