<?xml version="1.0" encoding="UTF-8"?>
<svg width="16" height="16" version="1.1" xmlns="http://www.w3.org/2000/svg">
 <path d="m11 11v5h5v-5zm1 1h1v1h1v-1h1v2h-1v1h-1v-1h-1z" fill="#c0bfbc"/>
 <path d="m2 0v2 12 2h2 6v-6h4v-8c0-1.108-0.892-2-2-2h-8-2zm5 4h2v3.5859l0.29297-0.29297c0.18751-0.18755 0.44183-0.29293 0.70703-0.29297h1v1h-0.001953c4.78e-4 0.26492-0.10419 0.51921-0.29102 0.70703l-2.707 2.707-2.707-2.707c-0.18755-0.18751-0.29293-0.44183-0.29297-0.70703v-1h1c0.2652 4.01e-5 0.51953 0.10542 0.70703 0.29297l0.29297 0.29297v-3.5859z" fill="#c0bfbc" fill-opacity=".94902" stroke-linecap="round" stroke-linejoin="round" stroke-width=".5"/>
</svg>
