<svg width="128" height="128" version="1.0" viewBox="0 0 128 128" xmlns="http://www.w3.org/2000/svg">
 <defs>
  <linearGradient id="linearGradient1313" x1="12" x2="116" y1="116" y2="116" gradientUnits="userSpaceOnUse">
   <stop stop-color="#b5835a" offset="0"/>
   <stop stop-color="#cdab8f" offset=".038462"/>
   <stop stop-color="#b5835a" offset=".076856"/>
   <stop stop-color="#b5835a" offset=".92308"/>
   <stop stop-color="#cdab8f" offset=".96154"/>
   <stop stop-color="#b5835a" offset="1"/>
  </linearGradient>
  <linearGradient id="linearGradient1419" x1="12" x2="116" y1="116" y2="116" gradientUnits="userSpaceOnUse">
   <stop stop-color="#b5835a" offset="0"/>
   <stop stop-color="#cdab8f" offset=".038462"/>
   <stop stop-color="#5f991f" offset=".076856"/>
   <stop stop-color="#5f991f" offset=".92308"/>
   <stop stop-color="#73ba25" offset=".96154"/>
   <stop stop-color="#5f991f" offset="1"/>
  </linearGradient>
  <linearGradient id="linearGradient1503" x1="64" x2="116" y1="46" y2="46" gradientUnits="userSpaceOnUse">
   <stop stop-color="#73ba25" offset="0"/>
   <stop stop-color="#73ba25" offset=".84615"/>
   <stop stop-color="#85d52d" offset=".92115"/>
   <stop stop-color="#73ba25" offset="1"/>
  </linearGradient>
  <linearGradient id="linearGradient1549" x1="12" x2="116" y1="82" y2="80" gradientUnits="userSpaceOnUse">
   <stop stop-color="#cdab8f" offset="0"/>
   <stop stop-color="#d4b7a0" offset=".038461"/>
   <stop stop-color="#cdab8f" offset=".076923"/>
   <stop stop-color="#cdab8f" offset="1"/>
  </linearGradient>
 </defs>
 <rect x="12" y="16" width="104" height="100" rx="8" ry="8" fill="url(#linearGradient1313)"/>
 <rect x="12" y="14" width="104" height="68" rx="8" ry="8" fill="#a37651"/>
 <rect x="12" y="12" width="104" height="68" rx="8" ry="8" fill="url(#linearGradient1549)"/>
 <path d="m64 16v100h44c4.432 0 8-3.568 8-8v-84c0-4.432-3.568-8-8-8z" fill="url(#linearGradient1419)"/>
 <path d="m64 14v68h44c4.432 0 8-3.568 8-8v-52c0-4.432-3.568-8-8-8z" fill="#54881b"/>
 <path d="m64 12v68h44c4.432 0 8-3.568 8-8v-52c0-4.432-3.568-8-8-8z" fill="url(#linearGradient1503)"/>
 <rect x="63" y="14" width="2" height="68" rx="0" ry="0" fill="#63452c"/>
 <rect x="63" y="12" width="2" height="68" rx="0" ry="0" fill="#865e3c"/>
 <path d="m55 80v16l3-3 3 3 3-3 3 3 3-3 3 3v-16z" fill="#63452c" opacity=".5"/>
 <path d="m32 32v18.344l-1.1719-1.1719a4.0004 4.0004 0 0 0-2.8691-1.2129 4.0004 4.0004 0 0 0-0.53906 0.041h-3.4199v3.4238a4.0004 4.0004 0 0 0 1.1719 3.4043l10.828 10.828 10.828-10.828a4.0004 4.0004 0 0 0 1.1719-3.5391v-3.2891h-3.2715a4.0004 4.0004 0 0 0-3.5566 1.1719l-1.1719 1.1719v-18.344z" fill="#a37651"/>
 <path d="m32 33v18.344l-1.1719-1.1719a4.0004 4.0004 0 0 0-2.8691-1.2129 4.0004 4.0004 0 0 0-0.53906 0.041h-3.4199v3.4238a4.0004 4.0004 0 0 0 1.1719 3.4043l10.828 10.828 10.828-10.828a4.0004 4.0004 0 0 0 1.1719-3.5391v-3.2891h-3.2715a4.0004 4.0004 0 0 0-3.5566 1.1719l-1.1719 1.1719v-18.344z" fill="#b98962"/>
 <rect x="55" y="12" width="18" height="68" fill="#a37651" opacity=".75"/>
 <path d="m98 62v10h10v-10h-10zm2 2h2v2h2v-2h2v4h-2v2h-2v-2h-2v-4z" fill="#54881b"/>
</svg>
