<svg height="128" width="128" xmlns="http://www.w3.org/2000/svg"><g stroke-width=".5"><path d="M16 20L4 40l12 4zm96 0l12 20-12 4zm-96 0h96v88H16z" fill="#cdab8f"/><path d="M16 20h96v80H16z" fill="#dec7b4"/><path d="M44 20h68v80H44z" fill="#73ba25"/><path d="M44 100h68v8H44z" fill="#54881b"/><path d="M16 20l-4 32h52V20z" fill="#dec7b4"/></g><path d="M80 64c-4.4 0-8 3.604-8 8s3.604 8 8 8c4.392 0 8-3.604 8-8s-3.608-8-8-8zm0 4c2.232 0 4 1.768 4 4s-1.768 4-4 4-4-1.768-4-4 1.768-4 4-4zm0-24c-15.372 0-28 12.632-28 28s12.628 28 28 28c15.368 0 28-12.632 28-28S95.368 44 80 44zm0 16c6.72 0 12 5.28 12 12s-5.28 12-12 12-12-5.28-12-12 5.28-12 12-12z" fill="#3d3846"/><g stroke-width=".5"><path d="M44 52h72l-4-32H44z" fill="#73ba25"/><path d="M12 52h52v4H12z" fill="#cdab8f"/><path d="M44 52h72v4H44z" fill="#54881b"/></g></svg>