<?xml version="1.0" encoding="UTF-8"?>
<svg version="1.1" viewBox="0 0 128 128" xmlns="http://www.w3.org/2000/svg">
<linearGradient id="a" x1="24" x2="104" y1="20" y2="20" gradientUnits="userSpaceOnUse">
<stop stop-color="#8ff0a4" offset="0"/>
<stop stop-color="#81dffe" offset="1"/>
</linearGradient>
<path d="M20 8h88v108H20z" fill="#f6f5f4"/>
<path d="M20 116h88v4H20z" fill="#deddda"/>
<path d="M60 104h44v4H60z" fill="#5e5c64"/>
<path d="M24 16h80v8H24z" fill="url(#a)"/>
<path d="M24 32h80v4H24zm0 8h80v4H24zm0 8h52v4H24zm0 12h80v4H24zm0 8h80v4H24zm0 8h60v4H24z" fill="#deddda"/>
<path d="M60 92h4v12h-4zm4 0h36v4H64zm36 0h4v12h-4z" fill="#5e5c64"/>
<path d="M24 96h32v8H24z" fill="#deddda"/>
<path d="M99.828 28.172L60 68l8 8 39.82-39.82a10 10 0 0 0-7.992-8.008z" fill="#f6d32d"/>
<path d="m60 68l-8 16 16-8z" fill="#ffe2c0"/>
<path d="M105.07 30.93L64 72l4 4 39.82-39.82a10 10 0 0 0-2.75-5.25z" fill="#f5c211"/>
<path d="M64 72L52 84l16-8z" fill="#ffc993"/>
<path d="m56 76l4 4-8 4z" fill="#3d3846"/>
<path d="m58 78l-6 6 8-4z"/>
</svg>
