<svg height="128" width="128" xmlns="http://www.w3.org/2000/svg"><g stroke-width=".5"><path d="M16 20L4 40l12 4zm96 0l12 20-12 4zm-96 0h96v88H16z" fill="#cdab8f"/><path d="M16 20h96v80H16z" fill="#dec7b4"/><path d="M44 20h68v80H44z" fill="#73ba25"/><path d="M44 100h68v8H44z" fill="#54881b"/><path d="M16 20l-4 32h52V20z" fill="#dec7b4"/></g><path d="M78 44c-1.108 0-2 .892-2 2v4c0 1.108.892 2 2 2h4c1.108 0 2-.892 2-2v-4c0-1.108-.892-2-2-2zm0 12c-1.108 0-2 .892-2 2v4c0 1.108.892 2 2 2h4c1.108 0 2-.892 2-2v-4c0-1.108-.892-2-2-2zm0 12c-1.108 0-2 .892-2 2v4c0 1.108.892 2 2 2h4c1.108 0 2-.892 2-2v-4c0-1.108-.892-2-2-2zm-22 4v4a4 4 0 0 0 1.172 2.828l20 20a4 4 0 0 0 5.656 0l20-20A4 4 0 0 0 104 76v-4h-6a4 4 0 0 0-2.828 1.172L80 88.344 64.828 73.172A4 4 0 0 0 62 72z" fill="#3d3846"/><g stroke-width=".5"><path d="M44 52h72l-4-32H44z" fill="#73ba25"/><path d="M12 52h52v4H12z" fill="#cdab8f"/><path d="M44 52h72v4H44z" fill="#54881b"/></g></svg>