<?xml version="1.0" encoding="UTF-8"?>
<svg version="1.1" viewBox="0 0 128 128" xmlns="http://www.w3.org/2000/svg" xmlns:xlink="http://www.w3.org/1999/xlink">
<defs>
<linearGradient id="a" x1="8" x2="120" y1="68" y2="68" gradientUnits="userSpaceOnUse">
<stop stop-color="#c0bfbc" offset="0"/>
<stop stop-color="#c0bfbc" offset=".143"/>
<stop stop-color="#deddda" offset=".25"/>
<stop stop-color="#c0bfbc" stop-opacity=".939" offset=".5"/>
<stop stop-color="#c0bfbc" stop-opacity=".984" offset="1"/>
</linearGradient>
<clipPath id="b">
<circle cx="86" cy="78" r="10" fill="#ffc993"/>
</clipPath>
</defs>
<g stroke-width="4">
<path d="m64 12c-30.928 0-56 25.072-56 56s25.072 56 56 56 56-25.072 56-56-25.072-56-56-56zm0 36a20 20 0 0 1 20 20 20 20 0 0 1 -20 20 20 20 0 0 1 -20 -20 20 20 0 0 1 20 -20z" fill="url(#a)"/>
<path d="m64 8c-30.928 0-56 25.072-56 56s25.072 56 56 56 56-25.072 56-56-25.072-56-56-56zm0 36a20 20 0 0 1 20 20 20 20 0 0 1 -20 20 20 20 0 0 1 -20 -20 20 20 0 0 1 20 -20z" fill="#deddda"/>
<path d="m64 44a20 20 0 0 0 -20 20 20 20 0 0 0 20 20 20 20 0 0 0 20 -20 20 20 0 0 0 -20 -20zm0 12a8 8 0 0 1 8 8 8 8 0 0 1 -8 8 8 8 0 0 1 -8 -8 8 8 0 0 1 8 -8z" fill="#c0bfbc" fill-opacity=".947"/>
<path d="m64 8v36a20 20 0 0 1 14.132 5.868l25.468-25.468a55.832 55.832 0 0 0 -39.6 -16.4zm-14.132 70.132-25.468 25.468a55.832 55.832 0 0 0 39.6 16.4v-36a20 20 0 0 1 -14.132 -5.868z" fill="#f6f5f4" opacity=".5"/>
<path d="m64 40a24 24 0 0 0 -24 24 24 24 0 0 0 24 24 24 24 0 0 0 24 -24 24 24 0 0 0 -24 -24zm0 4a20 20 0 0 1 20 20 20 20 0 0 1 -20 20 20 20 0 0 1 -20 -20 20 20 0 0 1 20 -20z" fill="#9a9996" fill-opacity=".947"/>
</g>
<g transform="matrix(1.8,0,0,1.8,-68.8,-66.4)" clip-path="url(#b)" stroke-width="4">
<path d="m64 12c-30.928 0-56 25.072-56 56s25.072 56 56 56 56-25.072 56-56-25.072-56-56-56zm0 36a20 20 0 0 1 20 20 20 20 0 0 1 -20 20 20 20 0 0 1 -20 -20 20 20 0 0 1 20 -20z" fill="url(#a)"/>
<path d="m64 8c-30.928 0-56 25.072-56 56s25.072 56 56 56 56-25.072 56-56-25.072-56-56-56zm0 36a20 20 0 0 1 20 20 20 20 0 0 1 -20 20 20 20 0 0 1 -20 -20 20 20 0 0 1 20 -20z" fill="#deddda"/>
<path d="m64 44a20 20 0 0 0 -20 20 20 20 0 0 0 20 20 20 20 0 0 0 20 -20 20 20 0 0 0 -20 -20zm0 12a8 8 0 0 1 8 8 8 8 0 0 1 -8 8 8 8 0 0 1 -8 -8 8 8 0 0 1 8 -8z" fill="#c0bfbc" fill-opacity=".947"/>
<path d="m64 8v36a20 20 0 0 1 14.132 5.868l25.468-25.468a55.832 55.832 0 0 0 -39.6 -16.4zm-14.132 70.132-25.468 25.468a55.832 55.832 0 0 0 39.6 16.4v-36a20 20 0 0 1 -14.132 -5.868z" fill="#f6f5f4" opacity=".5"/>
<path d="m64 40a24 24 0 0 0 -24 24 24 24 0 0 0 24 24 24 24 0 0 0 24 -24 24 24 0 0 0 -24 -24zm0 4a20 20 0 0 1 20 20 20 20 0 0 1 -20 20 20 20 0 0 1 -20 -20 20 20 0 0 1 20 -20z" fill="#9a9996" fill-opacity=".947"/>
</g>
<path d="m86 55.941a22 22 0 0 0 -22 22 22 22 0 0 0 22 22 22 22 0 0 0 14.07 -5.1016l4.0313 4.0313a4.0004 4.0004 0 0 0 1.0703 3.8984l12 12a4.0004 4.0004 0 1 0 5.6562 -5.6562l-12-12a4.0004 4.0004 0 0 0 -2.8672 -1.2109 4.0004 4.0004 0 0 0 -1.0312 0.14064l-4.0391-4.0391a22 22 0 0 0 5.1094 -14.062 22 22 0 0 0 -22 -22zm0 4a18 18 0 0 1 18 18 18 18 0 0 1 -18 18 18 18 0 0 1 -18 -18 18 18 0 0 1 18 -18z" fill="#77767b"/>
<path d="m86 51.941a22 22 0 0 0 -22 22 22 22 0 0 0 22 22 22 22 0 0 0 14.07 -5.1016l4.0313 4.0313a4.0004 4.0004 0 0 0 1.0703 3.8984l12 12a4.0004 4.0004 0 1 0 5.6562 -5.6562l-12-12a4.0004 4.0004 0 0 0 -2.8672 -1.2109 4.0004 4.0004 0 0 0 -1.0312 0.14064l-4.0391-4.0391a22 22 0 0 0 5.1094 -14.062 22 22 0 0 0 -22 -22zm0 4a18 18 0 0 1 18 18 18 18 0 0 1 -18 18 18 18 0 0 1 -18 -18 18 18 0 0 1 18 -18z" fill="#9a9996"/>
<path d="m86 55.941a18 18 0 0 0 -18 18 18 18 0 0 0 18 18 18 18 0 0 0 18 -18 18 18 0 0 0 -18 -18z" fill="#3584e4" opacity=".2"/>
<path d="m86 55.941a18 18 0 0 0 -18 18 18 18 0 0 0 5.2812 12.719l25.438-25.438a18 18 0 0 0 -12.719 -5.2812z" fill="#fff" opacity=".2"/>
</svg>
