<?xml version="1.0" encoding="UTF-8"?>
<svg version="1.1" viewBox="0 0 128 128" xmlns="http://www.w3.org/2000/svg" xmlns:xlink="http://www.w3.org/1999/xlink">
 <defs>
  <linearGradient id="b" x1="8" x2="120" y1="68" y2="68" gradientTransform="translate(0,-3)" gradientUnits="userSpaceOnUse">
   <stop stop-color="#c0bfbc" offset="0"/>
   <stop stop-color="#c0bfbc" offset=".143"/>
   <stop stop-color="#deddda" offset=".25"/>
   <stop stop-color="#c0bfbc" stop-opacity=".939" offset=".5"/>
   <stop stop-color="#c0bfbc" stop-opacity=".984" offset="1"/>
  </linearGradient>
  <radialGradient id="radialGradient972" cx="65" cy="35" r="56" gradientTransform="matrix(.89286 0 0 1 6.9643 0)" gradientUnits="userSpaceOnUse">
   <stop stop-color="#e6e6e6" offset="0"/>
   <stop stop-color="#ccc" offset="1"/>
  </radialGradient>
  <linearGradient id="linearGradient1231" x1="65" x2="65" y1="25" y2="100" gradientTransform="translate(0,-3)" gradientUnits="userSpaceOnUse">
   <stop stop-color="#f9f9f9" offset="0"/>
   <stop stop-color="#e6e6e6" offset="1"/>
  </linearGradient>
  <linearGradient id="linearGradient2132" x1="64" x2="124.06" y1="85.971" y2="85.971" gradientUnits="userSpaceOnUse">
   <stop stop-color="#2f2f35" offset="0"/>
   <stop stop-color="#666" offset=".18328"/>
   <stop stop-color="#666" offset=".47408"/>
   <stop stop-color="#2f2f35" offset=".59723"/>
   <stop stop-color="#2f2f35" offset=".91423"/>
   <stop stop-color="#4d4d4d" offset=".95437"/>
   <stop stop-color="#2f2f35" offset="1"/>
  </linearGradient>
 </defs>
 <g stroke-width="4">
  <path d="m64 9c-30.928 0-56 25.072-56 56s25.072 56 56 56 56-25.072 56-56-25.072-56-56-56zm0 36a20 20 0 0 1 20 20 20 20 0 0 1-20 20 20 20 0 0 1-20-20 20 20 0 0 1 20-20z" fill="url(#b)"/>
  <path d="m64 8c-30.928 0-56 25.072-56 56s25.072 56 56 56 56-25.072 56-56-25.072-56-56-56zm0 36c28.512 2.9461 21.051 39.36 0 40-11.046 0-20-8.9543-20-20s8.9543-20 20-20z" fill="url(#radialGradient972)"/>
  <path d="m64 44a20 20 0 0 0-20 20 20 20 0 0 0 20 20 20 20 0 0 0 20-20 20 20 0 0 0-20-20zm0 12a8 8 0 0 1 8 8 8 8 0 0 1-8 8 8 8 0 0 1-8-8 8 8 0 0 1 8-8z" fill="#c0bfbc" fill-opacity=".49642"/>
  <path d="m64 8v36a20 20 0 0 1 14.132 5.868l25.468-25.468a55.832 55.832 0 0 0-39.6-16.4zm-14.132 70.132-25.468 25.468a55.832 55.832 0 0 0 39.6 16.4v-36a20 20 0 0 1-14.132-5.868z" fill="url(#linearGradient1231)" opacity=".5"/>
  <path d="m64 40a24 24 0 0 0-24 24 24 24 0 0 0 24 24 24 24 0 0 0 24-24 24 24 0 0 0-24-24zm0 4a20 20 0 0 1 20 20 20 20 0 0 1-20 20 20 20 0 0 1-20-20 20 20 0 0 1 20-20z" fill="#9a9996" fill-opacity=".947"/>
 </g>
 <g stroke-width="7.2">
  <path d="m86 55.941a18 18 0 0 0-4.4707 0.59766 36 36 0 0 1-13.182 20.719 18 18 0 0 0 17.652 14.684 18 18 0 0 0 18-18 18 18 0 0 0-18-18z" fill="#deddda"/>
  <path d="m81.461 56.555a18 18 0 0 0-13.461 17.387 18 18 0 0 0 0.3418 3.2891 36 36 0 0 0 13.119-20.676z" fill="#c0bfbc" fill-opacity=".94902"/>
  <path d="m86 55.941a18 18 0 0 0-4.5527 0.61524 36 36 0 0 1-13.102 20.695 18 18 0 0 0 2.8223 6.834 43.2 43.2 0 0 0 17.725-27.906 18 18 0 0 0-2.8926-0.23828z" fill="#9e9d9a"/>
 </g>
 <path d="m86 55.941c-12.15 0-22 9.8497-22 22s9.8497 22 22 22c5.1422-0.0039 10.121-1.8089 14.07-5.1016l4.0312 4.0312c-0.37439 1.3974 0.0349 2.8881 1.0703 3.8984l12 12c2.4953 2.5856 6.8695 0.82569 6.8789-2.7676h6e-3v-4.002h-1.0568v1.3613c-0.0542-0.0848-0.11149-0.16756-0.17188-0.24805l-12-12c-0.75308-0.77413-1.7872-1.2109-2.8672-1.2109-0.34841 0.0018-0.69509 0.04904-1.0312 0.14062l-4.0391-4.0391c3.2937-3.9466 5.1015-8.922 5.1094-14.062 0-12.15-9.8497-22-22-22zm0 4c9.9411 0 18 8.0589 18 18s-8.0589 18-18 18-18-8.0589-18-18 8.0589-18 18-18z" fill="url(#linearGradient2132)"/>
 <path d="m86 51.941a22 22 0 0 0-22 22 22 22 0 0 0 22 22 22 22 0 0 0 14.07-5.1016l4.0313 4.0313a4.0004 4.0004 0 0 0 1.0703 3.8984l12 12a4.0004 4.0004 0 1 0 5.6562-5.6562l-12-12a4.0004 4.0004 0 0 0-2.8672-1.2109 4.0004 4.0004 0 0 0-1.0312 0.14064l-4.0391-4.0391a22 22 0 0 0 5.1094-14.062 22 22 0 0 0-22-22zm0 4a18 18 0 0 1 18 18 18 18 0 0 1-18 18 18 18 0 0 1-18-18 18 18 0 0 1 18-18z" fill="#4b4b55"/>
 <path d="m86 55.941a18 18 0 0 0-18 18 18 18 0 0 0 18 18 18 18 0 0 0 18-18 18 18 0 0 0-18-18z" fill="#3584e4" opacity=".2"/>
 <path d="m86 55.941a18 18 0 0 0-18 18 18 18 0 0 0 5.2812 12.719l25.438-25.438a18 18 0 0 0-12.719-5.2812z" fill="#fff" opacity=".2"/>
</svg>
